HIERARCHY
ROOT Hips
{
  OFFSET 0.849866 78.6569 -0.536788
  CHANNELS 6 Xposition Yposition Zposition Zrotation Xrotation Yrotation
  JOINT Bip01_Pelvis
  {
    OFFSET 0 0 0
    CHANNELS 6 Xposition Yposition Zposition Zrotation Xrotation Yrotation
    JOINT BN_Tail_01
    {
      OFFSET -5.52397 -0.332285 0
      CHANNELS 6 Xposition Yposition Zposition Zrotation Xrotation Yrotation
      JOINT BN_Tail_02
      {
        OFFSET 6.48885 -2.032e-005 0
        CHANNELS 6 Xposition Yposition Zposition Zrotation Xrotation Yrotation
        JOINT BN_Tail_03
        {
          OFFSET 7.08759 1.016e-005 -0.00261112
          CHANNELS 6 Xposition Yposition Zposition Zrotation Xrotation Yrotation
          End Site
          {
            OFFSET 0 0 0
          }
        }
      }
    }
    JOINT Bip01_Spine
    {
      OFFSET 4.02227 0.398968 0
      CHANNELS 6 Xposition Yposition Zposition Zrotation Xrotation Yrotation
      JOINT BN_UpperArm_R_01
      {
        OFFSET 4.84413 -3.22857 -3.65581
        CHANNELS 6 Xposition Yposition Zposition Zrotation Xrotation Yrotation
        JOINT BN_Forearm_R_01
        {
          OFFSET 8.51614 0 0
          CHANNELS 6 Xposition Yposition Zposition Zrotation Xrotation Yrotation
          JOINT BN_hand_R_01
          {
            OFFSET 10.1924 0 0
            CHANNELS 6 Xposition Yposition Zposition Zrotation Xrotation Yrotation
            JOINT BN_Finger_R_02
            {
              OFFSET 14.5949 -1.43855 0.585079
              CHANNELS 6 Xposition Yposition Zposition Zrotation Xrotation Yrotation
              End Site
              {
                OFFSET 0 0 0
              }
            }
            JOINT BN_Finger_R_01
            {
              OFFSET 14.4623 0 0
              CHANNELS 6 Xposition Yposition Zposition Zrotation Xrotation Yrotation
              End Site
              {
                OFFSET 0 0 0
              }
            }
          }
        }
      }
      JOINT BN_UpperArm_L_01
      {
        OFFSET 4.84412 -3.22858 3.65557
        CHANNELS 6 Xposition Yposition Zposition Zrotation Xrotation Yrotation
        JOINT BN_Forearm_L_01
        {
          OFFSET 8.51611 0 0
          CHANNELS 6 Xposition Yposition Zposition Zrotation Xrotation Yrotation
          JOINT BN_hand_L_01
          {
            OFFSET 10.1924 0 0
            CHANNELS 6 Xposition Yposition Zposition Zrotation Xrotation Yrotation
            JOINT BN_Finger_L_01
            {
              OFFSET 14.4623 0 0
              CHANNELS 6 Xposition Yposition Zposition Zrotation Xrotation Yrotation
              End Site
              {
                OFFSET 0 0 0
              }
            }
            JOINT BN_Finger_L_02
            {
              OFFSET 14.5949 1.43855 0.585071
              CHANNELS 6 Xposition Yposition Zposition Zrotation Xrotation Yrotation
              End Site
              {
                OFFSET 0 0 0
              }
            }
          }
        }
      }
      JOINT Bip01_R_Thigh
      {
        OFFSET -4.03411 -0.254132 -3.45377
        CHANNELS 6 Xposition Yposition Zposition Zrotation Xrotation Yrotation
        JOINT Bip01_R_Calf
        {
          OFFSET 3.92618 0 0
          CHANNELS 6 Xposition Yposition Zposition Zrotation Xrotation Yrotation
          JOINT Bip01_R_HorseLink
          {
            OFFSET 6.12319 0 0
            CHANNELS 6 Xposition Yposition Zposition Zrotation Xrotation Yrotation
            JOINT Bip01_R_Foot
            {
              OFFSET 9.94776 0 0
              CHANNELS 6 Xposition Yposition Zposition Zrotation Xrotation Yrotation
              JOINT Bip01_R_Toe3
              {
                OFFSET 0.881252 -0.110953 0.0158496
                CHANNELS 6 Xposition Yposition Zposition Zrotation Xrotation Yrotation
                JOINT Bip01_R_Toe31
                {
                  OFFSET 2.32137 0 0
                  CHANNELS 6 Xposition Yposition Zposition Zrotation Xrotation Yrotation
                  JOINT Bip01_R_Toe32
                  {
                    OFFSET 1.63293 0 0
                    CHANNELS 6 Xposition Yposition Zposition Zrotation Xrotation Yrotation
                    JOINT Bip01_R_Toe3Nub
                    {
                      OFFSET 1.72131 0 0
                      CHANNELS 6 Xposition Yposition Zposition Zrotation Xrotation Yrotation
                      End Site
                      {
                        OFFSET 0 0 0
                      }
                    }
                  }
                }
              }
              JOINT Bip01_R_Toe2
              {
                OFFSET 0.994751 0.967285 -1.09428
                CHANNELS 6 Xposition Yposition Zposition Zrotation Xrotation Yrotation
                JOINT Bip01_R_Toe21
                {
                  OFFSET 2.20201 0 0
                  CHANNELS 6 Xposition Yposition Zposition Zrotation Xrotation Yrotation
                  JOINT Bip01_R_Toe22
                  {
                    OFFSET 1.84925 0 0
                    CHANNELS 6 Xposition Yposition Zposition Zrotation Xrotation Yrotation
                    JOINT Bip01_R_Toe2Nub
                    {
                      OFFSET 1.70976 0 0
                      CHANNELS 6 Xposition Yposition Zposition Zrotation Xrotation Yrotation
                      End Site
                      {
                        OFFSET 0 0 0
                      }
                    }
                  }
                }
              }
              JOINT Bip01_R_Toe1
              {
                OFFSET 1.3748 1.34027 -0.0712419
                CHANNELS 6 Xposition Yposition Zposition Zrotation Xrotation Yrotation
                JOINT Bip01_R_Toe11
                {
                  OFFSET 2.26122 0 0
                  CHANNELS 6 Xposition Yposition Zposition Zrotation Xrotation Yrotation
                  JOINT Bip01_R_Toe12
                  {
                    OFFSET 2.22215 0 0
                    CHANNELS 6 Xposition Yposition Zposition Zrotation Xrotation Yrotation
                    JOINT Bip01_R_Toe1Nub
                    {
                      OFFSET 1.61867 0 0
                      CHANNELS 6 Xposition Yposition Zposition Zrotation Xrotation Yrotation
                      End Site
                      {
                        OFFSET 0 0 0
                      }
                    }
                  }
                }
              }
              JOINT Bip01_R_Toe0
              {
                OFFSET 1.40695 0.687986 0.883783
                CHANNELS 6 Xposition Yposition Zposition Zrotation Xrotation Yrotation
                JOINT Bip01_R_Toe01
                {
                  OFFSET 2.26828 0 0
                  CHANNELS 6 Xposition Yposition Zposition Zrotation Xrotation Yrotation
                  JOINT Bip01_R_Toe02
                  {
                    OFFSET 2.09769 0 0
                    CHANNELS 6 Xposition Yposition Zposition Zrotation Xrotation Yrotation
                    JOINT Bip01_R_Toe0Nub
                    {
                      OFFSET 1.53753 0 0
                      CHANNELS 6 Xposition Yposition Zposition Zrotation Xrotation Yrotation
                      End Site
                      {
                        OFFSET 0 0 0
                      }
                    }
                  }
                }
              }
            }
          }
        }
      }
      JOINT Bip01_L_Thigh
      {
        OFFSET -4.03411 -0.254147 3.45377
        CHANNELS 6 Xposition Yposition Zposition Zrotation Xrotation Yrotation
        JOINT Bip01_L_Calf
        {
          OFFSET 3.92616 0 0
          CHANNELS 6 Xposition Yposition Zposition Zrotation Xrotation Yrotation
          JOINT Bip01_L_HorseLink
          {
            OFFSET 6.1232 0 0
            CHANNELS 6 Xposition Yposition Zposition Zrotation Xrotation Yrotation
            JOINT Bip01_L_Foot
            {
              OFFSET 9.94775 0 0
              CHANNELS 6 Xposition Yposition Zposition Zrotation Xrotation Yrotation
              JOINT Bip01_L_Toe3
              {
                OFFSET 0.881246 -0.110986 -0.0157582
                CHANNELS 6 Xposition Yposition Zposition Zrotation Xrotation Yrotation
                JOINT Bip01_L_Toe31
                {
                  OFFSET 2.32136 0 0
                  CHANNELS 6 Xposition Yposition Zposition Zrotation Xrotation Yrotation
                  JOINT Bip01_L_Toe32
                  {
                    OFFSET 1.63293 0 0
                    CHANNELS 6 Xposition Yposition Zposition Zrotation Xrotation Yrotation
                    JOINT Bip01_L_Toe3Nub
                    {
                      OFFSET 1.7213 0 0
                      CHANNELS 6 Xposition Yposition Zposition Zrotation Xrotation Yrotation
                      End Site
                      {
                        OFFSET 0 0 0
                      }
                    }
                  }
                }
              }
              JOINT Bip01_L_Toe2
              {
                OFFSET 0.994649 0.967162 1.09447
                CHANNELS 6 Xposition Yposition Zposition Zrotation Xrotation Yrotation
                JOINT Bip01_L_Toe21
                {
                  OFFSET 2.202 0 0
                  CHANNELS 6 Xposition Yposition Zposition Zrotation Xrotation Yrotation
                  JOINT Bip01_L_Toe22
                  {
                    OFFSET 1.84926 0 0
                    CHANNELS 6 Xposition Yposition Zposition Zrotation Xrotation Yrotation
                    JOINT Bip01_L_Toe2Nub
                    {
                      OFFSET 1.70976 0 0
                      CHANNELS 6 Xposition Yposition Zposition Zrotation Xrotation Yrotation
                      End Site
                      {
                        OFFSET 0 0 0
                      }
                    }
                  }
                }
              }
              JOINT Bip01_L_Toe1
              {
                OFFSET 1.37483 1.34021 0.0715086
                CHANNELS 6 Xposition Yposition Zposition Zrotation Xrotation Yrotation
                JOINT Bip01_L_Toe11
                {
                  OFFSET 2.26124 0 0
                  CHANNELS 6 Xposition Yposition Zposition Zrotation Xrotation Yrotation
                  JOINT Bip01_L_Toe12
                  {
                    OFFSET 2.22214 0 0
                    CHANNELS 6 Xposition Yposition Zposition Zrotation Xrotation Yrotation
                    JOINT Bip01_L_Toe1Nub
                    {
                      OFFSET 1.61867 0 0
                      CHANNELS 6 Xposition Yposition Zposition Zrotation Xrotation Yrotation
                      End Site
                      {
                        OFFSET 0 0 0
                      }
                    }
                  }
                }
              }
              JOINT Bip01_L_Toe0
              {
                OFFSET 1.40707 0.688009 -0.883564
                CHANNELS 6 Xposition Yposition Zposition Zrotation Xrotation Yrotation
                JOINT Bip01_L_Toe01
                {
                  OFFSET 2.26828 0 0
                  CHANNELS 6 Xposition Yposition Zposition Zrotation Xrotation Yrotation
                  JOINT Bip01_L_Toe02
                  {
                    OFFSET 2.0977 0 0
                    CHANNELS 6 Xposition Yposition Zposition Zrotation Xrotation Yrotation
                    JOINT Bip01_L_Toe0Nub
                    {
                      OFFSET 1.53752 0 0
                      CHANNELS 6 Xposition Yposition Zposition Zrotation Xrotation Yrotation
                      End Site
                      {
                        OFFSET 0 0 0
                      }
                    }
                  }
                }
              }
            }
          }
        }
      }
      JOINT Bip01_Spine1
      {
        OFFSET 4.90674 -0.00437896 0
        CHANNELS 6 Xposition Yposition Zposition Zrotation Xrotation Yrotation
        JOINT Bip01_Neck
        {
          OFFSET 5.56447 -1.28357 0
          CHANNELS 6 Xposition Yposition Zposition Zrotation Xrotation Yrotation
          JOINT Bip01_Neck1
          {
            OFFSET 2.79308 -0.00219964 0
            CHANNELS 6 Xposition Yposition Zposition Zrotation Xrotation Yrotation
            JOINT Bip01_Head
            {
              OFFSET 2.79272 0 0
              CHANNELS 6 Xposition Yposition Zposition Zrotation Xrotation Yrotation
              JOINT BN_Mouth_01
              {
                OFFSET 4.19089 0.0665938 0
                CHANNELS 6 Xposition Yposition Zposition Zrotation Xrotation Yrotation
                End Site
                {
                  OFFSET 0 0 0
                }
              }
              JOINT Bip01_HeadNub
              {
                OFFSET 6.95118 0 0
                CHANNELS 6 Xposition Yposition Zposition Zrotation Xrotation Yrotation
                End Site
                {
                  OFFSET 0 0 0
                }
              }
            }
          }
        }
      }
    }
  }
}
MOTION
Frames:	3
Frame Time:	0.0333333
-6.56729 99.0762 -6.61561e-008 123.652 -90 -158.26 0 0 0 -89.999 6.1813 -89.9988 -5.52396 -0.332276 -1.19262e-016 -22.2811 0.00247192 179.967 6.48885 -7.6294e-006 -0.00301498 -27.8154 -4.6919e-010 6.6485e-010 7.08758 -3.8147e-006 -0.00296926 -23.3809 -0.000796837 0.0370946 4.02122 0.398949 -2.32831e-010 9.95614 1.44896 3.13766 4.84412 -3.22853 -3.65581 -81.5475 -6.81955 36.1769 8.51611 2.06502e-014 3.8147e-006 36.322 -0.00189517 -9.12805 10.1924 7.62941e-006 -3.8147e-006 -31.1743 0.725811 -0.943274 14.5949 -1.43856 0.585077 -48.7039 -1.45229 31.3551 14.4623 2.66454e-015 0 -2.99556 -0.00203099 30.462 4.84412 -3.22853 3.65557 99.153 -7.48283 -143.32 8.51612 -2.22045e-015 -3.8147e-006 -36.322 0.0019038 -9.12805 10.1924 -2.27374e-013 0 31.1805 -0.726745 -0.412015 14.4623 -1.90735e-006 -7.81597e-014 2.99427 0.00130998 28.7164 14.5949 1.43853 0.585064 48.6246 1.44236 32.0104 -3.83483 0.215129 -3.67577 -159.745 -1.58895 178.361 3.92619 -1.90735e-006 -1.42109e-014 -124.496 -6.56914e-006 8.62251e-006 6.12319 7.62941e-006 4.88498e-015 102.652 -2.75235e-006 -1.02839e-005 9.94775 3.81472e-006 -4.79617e-014 -43.7615 7.39432 -1.53234 0.88125 -0.110958 0.0158165 143.145 -4.44219 179.054 2.32136 3.81473e-006 1.33227e-015 81.3798 0.000131641 1.74448e-005 1.63293 0 -9.32588e-015 -87.5397 -7.45666e-007 7.19722e-006 1.72127 3.81479e-006 4.76837e-007 2.0872e-009 -1.89177e-007 -1.20942e-007 0.994721 0.96728 -1.09432 96.0638 1.22423 27.46 2.202 -1.5259e-005 2.38418e-007 55.5999 0.000247505 0.000170654 1.84923 3.81477e-006 1.19209e-007 -35.3175 0.0067717 -0.00958732 1.70975 2.84223e-014 -2.38419e-007 -1.00833e-005 -2.03968e-007 9.78344e-006 1.37482 1.34027 -0.0712974 105.257 -0.710016 -2.5986 2.26123 -7.62949e-006 4.70735e-014 31.1834 0.000163706 0.000249886 2.22213 3.81475e-006 2.38419e-007 -38.5076 7.91463e-005 -9.8939e-005 1.61866 -7.62953e-006 -2.38419e-007 -3.60266e-009 1.13992e-008 9.77996e-008 1.40697 0.687985 0.883725 101.536 -7.09748 -31.1803 2.26828 -1.4211e-014 -9.53674e-007 26.1296 7.91269e-005 0.000193809 2.0977 1.14443e-005 9.53674e-007 -61.0299 -6.91783e-006 6.50613e-006 1.53752 1.52591e-005 1.77636e-014 -5.74015e-007 8.84237e-006 -3.58284e-007 -4.21299 0.391149 3.21918 -135.068 8.64161 -178.065 3.92617 3.8147e-006 9.76996e-015 -113.554 -1.33139e-005 5.20866e-006 6.12321 7.62942e-006 3.06422e-014 125.633 -0.000813137 -0.00113535 9.94776 -0.000625613 -0.000671387 -39.3238 -7.83063 4.86505 0.881232 -0.111024 -0.0158649 126.324 3.98683 -177.813 2.32135 4.76842e-007 3.55271e-015 24.3154 0.0112393 0.0152493 1.63294 0 2.38419e-007 -68.4982 0.000541361 0.00118146 1.7213 -4.76846e-007 2.38419e-007 -179.961 0.00687569 0.00088684 0.994833 0.967261 1.09421 68.6002 12.4392 -24.6905 2.20201 0.000762948 5.52553e-011 30.5651 0.0121731 -0.0199 1.84925 -0.00102807 -0.000606536 -77.5762 0.00113811 0.00750262 1.70975 -5.72216e-006 3.81469e-006 179.961 0.00758547 -0.000448348 1.37489 1.34017 0.0711504 61.1452 -1.30927 2.3721 2.26122 0.000644691 0.000544071 28.1058 0.0124219 -0.0336014 2.22213 -0.00132944 -0.00130057 -68.8825 0.00259196 0.0195127 1.61865 -3.81477e-006 2.10498e-013 179.963 0.0129666 -0.000643848 1.40697 0.687848 -0.883844 72.4908 -10.6025 30.2593 2.26828 3.69486e-013 3.81469e-006 25.7311 -0.00947605 -0.0196279 2.09771 -2.84221e-013 3.81469e-006 -83.2607 6.86111e-005 -1.51646e-005 1.53752 3.81479e-006 -3.81469e-006 179.961 -0.00367948 -0.00405051 4.9071 -0.00428772 -0.000376225 17.1787 4.61225 -2.76409 5.56426 -1.28358 -9.5271e-007 3.06218 -5.82472 8.87565 2.79365 -0.00200653 -2.70709e-011 13.3285 -2.15275 -10.3527 2.79272 7.6294e-006 -4.21885e-014 20.1801 -1.79702 2.72291 4.19087 0.0665894 4.65894e-012 -178.074 0.0372315 179.999 6.95116 -1.42109e-014 -8.88178e-016 -1.11007e-005 1.00174e-005 9.96922e-006 
-6.57453 98.3273 -5.27294e-008 129.949 -90 -150.424 0 0 0 -89.9988 6.18128 -89.9989 -5.52396 -0.332276 -8.23994e-018 -20.449 0.00140381 179.967 6.48885 -7.6294e-006 -0.00301498 -28.4794 -6.09043e-010 7.12682e-010 7.08758 -3.8147e-006 -0.00296926 -23.8833 -0.00114081 0.0371286 4.02122 0.398949 -2.32831e-010 8.6576 1.37743 3.16969 4.84412 -3.22853 -3.65581 -81.6664 -7.4828 35.4723 8.51611 2.22045e-014 3.8147e-006 36.3251 -0.000425181 -12.7276 10.1924 7.62941e-006 -3.8147e-006 -31.0679 0.717761 -9.58384 14.5949 -1.43856 0.585077 -48.671 -1.44154 30.3518 14.4623 -7.10545e-015 1.06581e-014 -2.99467 -0.00171 29.5662 4.84412 -3.22853 3.65557 98.9347 -8.10306 -144.175 8.51612 -3.66374e-015 -3.8147e-006 -36.3251 0.000434851 -12.7276 10.1924 -2.27374e-013 7.10542e-015 31.0722 -0.720302 -8.96401 14.4623 -1.90735e-006 -3.55271e-014 2.99456 0.00135161 27.4856 14.5949 1.43853 0.585064 48.6203 1.4307 31.0845 -3.8388 0.12873 -3.67577 -158.986 -1.56607 178.344 3.92619 -1.90735e-006 -1.37668e-014 -123.669 -6.46054e-006 8.7087e-006 6.12319 7.62941e-006 3.9968e-015 101.929 -2.63473e-006 -1.0331e-005 9.94775 3.81472e-006 -4.66294e-014 -42.6601 7.84423 -2.22006 0.88125 -0.110958 0.0158165 142.857 -4.51058 179.008 2.32136 3.81473e-006 -6.66134e-015 81.3478 0.013113 0.00199294 1.63293 0 -4.44089e-016 -87.5397 -2.15275e-007 7.09797e-006 1.72127 3.81479e-006 4.76837e-007 2.08719e-009 -1.89177e-007 -1.20942e-007 0.994721 0.96728 -1.09432 95.5759 0.971551 27.4692 2.202 -1.5259e-005 2.38418e-007 55.643 0.0253906 0.0173585 1.84923 3.81477e-006 1.19209e-007 -35.3181 0.00707192 -0.0100107 1.70975 0 -2.38419e-007 -1.00833e-005 -2.03968e-007 9.78345e-006 1.37482 1.34027 -0.0712974 104.763 -0.686748 -2.60484 2.26123 -7.62949e-006 5.55112e-014 31.2445 0.0157312 0.0259093 2.22213 3.81475e-006 2.38419e-007 -38.5332 0.00750004 -0.00941683 1.61866 -7.62953e-006 -2.38419e-007 -3.60266e-009 1.13992e-008 9.78127e-008 1.40697 0.687985 0.883725 101.136 -6.85635 -31.229 2.26828 1.4211e-014 -9.53674e-007 26.1723 0.00935126 0.0190605 2.0977 1.14443e-005 9.53674e-007 -61.0302 -8.23226e-006 7.29589e-006 1.53752 1.52591e-005 2.30926e-014 -5.74015e-007 8.84237e-006 -3.58284e-007 -4.22069 0.294371 3.21918 -132.136 8.4788 -178.133 3.92617 3.8147e-006 8.4377e-015 -109.743 -1.28645e-005 6.07974e-006 6.12321 7.62942e-006 2.30926e-014 125.489 -0.000810183 -0.00113733 9.94776 -0.000625613 -0.000671387 -41.5525 -7.9568 4.59515 0.881232 -0.111024 -0.0158649 125.076 3.95197 -177.721 2.32135 4.76842e-007 8.88179e-016 23.5366 0.00938667 0.0116257 1.63294 0 2.38419e-007 -68.5192 0.00720178 -0.00143956 1.7213 -4.76847e-007 2.38419e-007 -179.961 0.00687569 0.00088684 0.994833 0.967261 1.09421 69.935 11.8353 -24.9712 2.20201 0.000762948 5.52518e-011 32.3026 0.0174139 -0.0110081 1.84924 -0.00102807 -0.000606536 -79.225 0.00406286 0.00693409 1.70975 -5.72217e-006 3.81469e-006 179.961 0.00758547 -0.000448348 1.37489 1.34017 0.0711504 62.3831 -1.2692 2.39381 2.26122 0.000644691 0.000544071 29.3605 0.0516224 0.0371297 2.22213 -0.00132944 -0.00130057 -70.0666 0.0100338 0.0167173 1.61865 -3.81477e-006 2.20268e-013 179.963 0.0129666 -0.000643848 1.40697 0.687848 -0.883844 73.5205 -10.0189 30.4407 2.26827 3.97908e-013 3.81469e-006 27.2038 -1.14202e-005 1.20814e-005 2.09771 -3.12643e-013 3.81469e-006 -84.1393 0.00699978 -0.000724309 1.53752 3.81479e-006 -3.81469e-006 179.961 -0.00367948 -0.00405051 4.9071 -0.00428772 -0.000376225 16.4554 4.64655 -2.70621 5.56426 -1.28358 -9.53014e-007 2.83305 -5.86026 8.85233 2.79365 -0.00200653 -2.61175e-011 13.5521 -2.12133 -10.3265 2.79272 7.6294e-006 -3.81917e-014 19.9248 -1.88051 2.51799 4.19087 0.0665894 -1.65645e-013 -178.133 0.000411988 179.994 6.95116 -1.42109e-014 -1.77636e-015 -2.79034e-006 1.00174e-005 -4.8684e-008 
-6.54099 97.6029 -4.0125e-008 138.299 -90 -140.519 0 0 0 -89.9989 6.18134 -89.9988 -5.52396 -0.332276 -2.98806e-016 -19.7163 0.000976564 179.967 6.48885 -7.6294e-006 -0.00301498 -28.5552 -6.48229e-010 7.44506e-010 7.08758 -3.8147e-006 -0.00296926 -24.545 -0.00159453 0.0371677 4.02122 0.398949 -2.3283e-010 7.2775 1.30063 3.20194 4.84412 -3.22853 -3.65581 -81.7476 -8.033 35.0662 8.51611 3.41949e-014 3.8147e-006 36.3252 -0.000309697 -15.8027 10.1924 7.62941e-006 -3.8147e-006 -30.9728 0.696864 -17.1286 14.5949 -1.43856 0.585077 -48.599 -1.44108 28.6307 14.4623 -9.76999e-015 -7.10543e-015 -2.99434 -0.00319467 27.9025 4.84412 -3.22853 3.65557 98.7236 -8.55749 -144.731 8.51612 -7.32748e-015 -3.8147e-006 -36.3252 0.000322486 -15.8027 10.1924 0 -3.55271e-015 30.979 -0.699708 -16.5813 14.4623 -1.90735e-006 -1.77636e-014 2.99484 0.00138006 26.2425 14.5949 1.43853 0.585064 48.5681 1.43147 29.5166 -3.83965 0.0345421 -3.67577 -156.544 -1.55051 178.318 3.92619 -1.90735e-006 -1.64313e-014 -122.053 -6.22178e-006 8.87819e-006 6.12319 7.62941e-006 2.66454e-015 101.84 -2.63383e-006 -1.03401e-005 9.94775 3.81472e-006 -4.52971e-014 -42.0253 8.22905 -2.42716 0.88125 -0.110958 0.0158165 143.251 -4.46728 179.054 2.32136 3.81473e-006 -1.11022e-014 79.8393 0.00792332 0.00141757 1.63293 0 3.9968e-015 -88.1076 -8.26199e-007 7.06981e-006 1.72127 3.81479e-006 4.76837e-007 2.08719e-009 -1.89177e-007 -1.20942e-007 0.994721 0.96728 -1.09432 94.4012 0.361131 27.4829 2.202 -1.5259e-005 2.38418e-007 55.4532 7.13623e-006 6.18955e-006 1.84923 3.81477e-006 1.19209e-007 -35.7514 -0.00195775 0.00269034 1.70975 5.68447e-014 -2.38419e-007 -1.00833e-005 -2.03968e-007 9.78345e-006 1.37482 1.34027 -0.0712974 103.698 -0.638685 -2.61703 2.26123 -7.62949e-006 5.4623e-014 31.063 -0.00520142 -0.00865546 2.22213 3.81475e-006 2.38419e-007 -38.941 3.89551e-007 1.41846e-007 1.61866 -7.62953e-006 -2.38419e-007 -3.60291e-009 1.13992e-008 1.01157e-005 1.40697 0.687985 0.883725 100.324 -6.36968 -31.3219 2.26828 0 -9.53674e-007 26.0377 -0.00392974 -0.0080104 2.0977 1.14443e-005 9.53674e-007 -61.579 -1.55604e-005 1.10651e-005 1.53752 1.52591e-005 1.95399e-014 -5.74036e-007 8.84237e-006 -3.58263e-007 -4.22531 0.191305 3.21918 -129.755 8.27766 -178.083 3.92617 3.8147e-006 7.99361e-015 -105.989 -1.23543e-005 6.90227e-006 6.12321 7.62942e-006 1.73195e-014 123.484 -0.000769815 -0.00116493 9.94776 -0.000625614 -0.000671387 -42.4279 -8.0759 4.31708 0.881232 -0.111024 -0.0158649 125.753 4.04728 -177.714 2.32135 4.76842e-007 2.66454e-015 23.5423 0.00878403 0.0102387 1.63294 0 2.38419e-007 -68.5403 0.0139149 -0.0040757 1.7213 -4.76847e-007 2.38419e-007 -179.961 0.00687569 0.00088684 0.994833 0.967261 1.09421 69.4623 12.0502 -24.8734 2.20201 0.000762948 5.52518e-011 31.0848 0.004502 -0.0324337 1.84924 -0.00102807 -0.000606536 -79.2305 0.00344498 0.00705206 1.70974 -5.72217e-006 3.81469e-006 179.961 0.00758547 -0.000448348 1.37489 1.34017 0.0711504 61.6736 -1.28733 2.38407 2.26122 0.000644691 0.000544071 28.3783 0.0235673 -0.0127322 2.22213 -0.00132944 -0.00130057 -70.0691 0.00931367 0.0169783 1.61865 -3.81477e-006 2.08722e-013 179.963 0.0129666 -0.000643848 1.40697 0.687848 -0.883844 72.8393 -10.4038 30.3224 2.26827 4.26331e-013 3.81469e-006 26.4955 -1.12415e-005 1.20865e-005 2.09771 -2.84221e-013 3.81469e-006 -84.1389 0.00615687 -0.000638407 1.53752 3.81479e-006 -3.81469e-006 179.961 -0.00367948 -0.00405051 4.9071 -0.00428772 -0.000376225 15.6865 4.6828 -2.64208 5.56426 -1.28358 -9.53303e-007 2.60161 -5.89607 8.82862 2.79365 -0.00200653 -2.48537e-011 13.232 -2.02101 -10.3264 2.79272 7.6294e-006 -3.39728e-014 19.7079 -1.94971 2.24515 4.19087 0.0665894 -1.2133e-011 -178.194 -0.0367584 179.989 6.95116 2.84217e-014 -1.77636e-015 -2.79033e-006 1.00174e-005 -4.86974e-008 
